<svg xmlns="http://www.w3.org/2000/svg" version="1.1" xmlns:xlink="http://www.w3.org/1999/xlink" xmlns:svgjs="http://svgjs.dev/svgjs" width="1500" height="1500" viewBox="0 0 1500 1500"><rect width="1500" height="1500" fill="#000000"></rect><g transform="matrix(0.6666666666666666,0,0,0.6666666666666666,249.39393939393938,446.1612606030817)"><svg viewBox="0 0 396 241" data-background-color="#ffffff" preserveAspectRatio="xMidYMid meet" height="912" width="1500" xmlns="http://www.w3.org/2000/svg" xmlns:xlink="http://www.w3.org/1999/xlink"><g id="tight-bounds" transform="matrix(1,0,0,1,0.2400000000000091,-0.06392073247153007)"><svg viewBox="0 0 395.52 241.12784146494306" height="241.12784146494306" width="395.52"><g><svg viewBox="0 0 395.52 241.12784146494306" height="241.12784146494306" width="395.52"><g transform="matrix(1,0,0,1,0,173.11987766403809)"><svg viewBox="0 0 395.52 68.00796380090497" height="68.00796380090497" width="395.52"><g id="textblocktransform"><svg viewBox="0 0 395.52 68.00796380090497" height="68.00796380090497" width="395.52" id="textblock"><g><svg viewBox="0 0 395.52 68.00796380090497" height="68.00796380090497" width="395.52"><g transform="matrix(1,0,0,1,0,0)"><svg width="395.52" viewBox="1.2 -37.5 220.98000000000002 38" height="68.00796380090497" data-palette-color="#30017e"><path d="M12.6 0.5Q7 0.5 4.1-3.03 1.2-6.55 1.2-12.1L1.2-12.1Q1.2-17.85 4.1-21.43 7-25 12.7-25L12.7-25Q15.75-25 18.15-23.75L18.15-23.75 17.45-19.9Q15.2-21.1 12.75-21.1L12.75-21.1Q9.4-21.1 7.53-18.78 5.65-16.45 5.65-12.3L5.65-12.3Q5.65-8.15 7.58-5.75 9.5-3.35 12.9-3.35L12.9-3.35Q15.5-3.35 17.5-4.55L17.5-4.55 18.1-0.65Q17.1-0.15 15.6 0.18 14.1 0.5 12.6 0.5L12.6 0.5ZM22.15-30.05L22.15-35 26.5-35 26.5-30.05 22.15-30.05ZM22.15 0L22.15-24.5 26.5-24.5 26.5 0 22.15 0ZM42.69-25Q46.49-25 48.52-22.03 50.55-19.05 50.55-14L50.55-14 50.55 0 46.19 0 46.19-13.45Q46.19-17.35 45.07-19.23 43.94-21.1 41.69-21.1L41.69-21.1Q40.05-21.1 38.64-20.18 37.24-19.25 36.29-17.6L36.29-17.6 36.29 0 31.94 0 31.94-24.5 35.64-24.5 35.94-21.45Q36.99-23.1 38.77-24.05 40.55-25 42.69-25L42.69-25ZM65.74 0.5Q62.04 0.5 59.42-1.23 56.79-2.95 55.47-5.9 54.14-8.85 54.14-12.45L54.14-12.45Q54.14-15.9 55.37-18.78 56.59-21.65 58.92-23.33 61.24-25 64.44-25L64.44-25Q68.54-25 71.12-22.25 73.69-19.5 73.69-14.65L73.69-14.65Q73.69-13.8 73.49-12.3L73.49-12.3 58.59-12.3Q58.74-7.95 60.77-5.7 62.79-3.45 66.04-3.45L66.04-3.45Q67.59-3.45 69.32-3.83 71.04-4.2 72.34-4.9L72.34-4.9 72.74-1Q69.99 0.5 65.74 0.5L65.74 0.5ZM58.79-15.35L69.24-15.35Q69.24-17.85 68.02-19.43 66.79-21 64.49-21L64.49-21Q62.24-21 60.77-19.6 59.29-18.2 58.79-15.35L58.79-15.35ZM101.74-25Q109.84-25 109.84-14L109.84-14 109.84 0 105.49 0 105.49-13.45Q105.49-17.45 104.42-19.23 103.34-21 100.79-21L100.79-21Q98.34-21 97.04-19.2 95.74-17.4 95.74-14L95.74-14 95.74 0 91.39 0 91.39-13.45Q91.39-17.3 90.32-19.15 89.24-21 86.99-21L86.99-21Q85.34-21 83.94-20.1 82.54-19.2 81.59-17.6L81.59-17.6 81.59 0 77.24 0 77.24-24.5 80.84-24.5 81.19-21.4Q82.24-23.05 84.04-24.03 85.84-25 87.99-25L87.99-25Q90.24-25 91.87-23.93 93.49-22.85 94.44-20.85L94.44-20.85Q95.39-22.8 97.27-23.9 99.14-25 101.74-25L101.74-25ZM119.59 0.5Q116.79 0.5 114.99-1.5 113.19-3.5 113.19-6.6L113.19-6.6Q113.19-11.2 117.04-13.23 120.89-15.25 125.64-15.35L125.64-15.35Q125.64-18.55 124.69-19.8 123.74-21.05 121.49-21.05L121.49-21.05Q118.59-21.05 115.59-18.8L115.59-18.8 115.04-22.45Q118.19-25 122.34-25L122.34-25Q126.29-25 128.19-22.73 130.09-20.45 130.09-15.4L130.09-15.4 130.09-8.25Q130.09-5.4 130.49-4.23 130.89-3.05 132.24-3.05L132.24-3.05 132.79-3.05 132.24 0.5 131.29 0.5Q128.99 0.5 127.89-0.35 126.79-1.2 126.09-3.1L126.09-3.1Q124.94-1.45 123.24-0.48 121.54 0.5 119.59 0.5L119.59 0.5ZM120.94-3.05Q122.14-3.05 123.44-3.98 124.74-4.9 125.64-6.4L125.64-6.4 125.64-12.25Q121.79-12.05 119.79-10.78 117.79-9.5 117.79-6.85L117.79-6.85Q117.79-3.05 120.94-3.05L120.94-3.05ZM146.28 0.5Q140.69 0.5 137.78-3.03 134.88-6.55 134.88-12.1L134.88-12.1Q134.88-17.85 137.78-21.43 140.69-25 146.38-25L146.38-25Q149.44-25 151.84-23.75L151.84-23.75 151.13-19.9Q148.88-21.1 146.44-21.1L146.44-21.1Q143.09-21.1 141.21-18.78 139.34-16.45 139.34-12.3L139.34-12.3Q139.34-8.15 141.26-5.75 143.19-3.35 146.59-3.35L146.59-3.35Q149.19-3.35 151.19-4.55L151.19-4.55 151.78-0.65Q150.78-0.15 149.28 0.18 147.78 0.5 146.28 0.5L146.28 0.5ZM168.93-24.5L173.28-24.5 173.28 0 169.58 0 169.28-3Q168.28-1.35 166.58-0.43 164.88 0.5 162.83 0.5L162.83 0.5Q158.98 0.5 157.11-2.08 155.23-4.65 155.23-9.45L155.23-9.45 155.23-24.5 159.58-24.5 159.58-10Q159.58-6.7 160.56-5.08 161.53-3.45 163.83-3.45L163.83-3.45Q165.43-3.45 166.73-4.35 168.03-5.25 168.93-6.85L168.93-6.85 168.93-24.5ZM189.93-25Q192.88-25 195.06-23.25 197.23-21.5 198.38-18.57 199.53-15.65 199.53-12.25L199.53-12.25Q199.53-8.7 198.33-5.78 197.13-2.85 194.96-1.18 192.78 0.5 189.93 0.5L189.93 0.5Q187.93 0.5 186.21-0.25 184.48-1 183.33-2.4L183.33-2.4 183.13 0 179.18 0 179.18-37.5 183.53-37.5 183.53-22.15Q186.13-25 189.93-25L189.93-25ZM189.18-3.35Q191.83-3.35 193.46-5.93 195.08-8.5 195.08-12.25L195.08-12.25Q195.08-16.1 193.48-18.6 191.88-21.1 189.18-21.1L189.18-21.1Q186.48-21.1 184.81-18.82 183.13-16.55 183.13-12.25L183.13-12.25Q183.13-7.8 184.81-5.58 186.48-3.35 189.18-3.35L189.18-3.35ZM214.23 0.5Q210.53 0.5 207.9-1.23 205.28-2.95 203.95-5.9 202.63-8.85 202.63-12.45L202.63-12.45Q202.63-15.9 203.85-18.78 205.08-21.65 207.4-23.33 209.73-25 212.93-25L212.93-25Q217.03-25 219.6-22.25 222.18-19.5 222.18-14.65L222.18-14.65Q222.18-13.8 221.98-12.3L221.98-12.3 207.08-12.3Q207.23-7.95 209.25-5.7 211.28-3.45 214.53-3.45L214.53-3.45Q216.08-3.45 217.8-3.83 219.53-4.2 220.83-4.9L220.83-4.9 221.23-1Q218.48 0.5 214.23 0.5L214.23 0.5ZM207.28-15.35L217.73-15.35Q217.73-17.85 216.5-19.43 215.28-21 212.98-21L212.98-21Q210.73-21 209.25-19.6 207.78-18.2 207.28-15.35L207.28-15.35Z" opacity="1" transform="matrix(1,0,0,1,0,0)" fill="#ffffff" class="wordmark-text-0" data-fill-palette-color="primary" id="text-0"></path></svg></g></svg></g></svg></g></svg></g><g transform="matrix(1,0,0,1,127.25510923024339,0)"><svg viewBox="0 0 141.0097815395132 141.0097815395132" height="141.0097815395132" width="141.0097815395132"><g><svg></svg></g><g id="icon-0"><svg viewBox="0 0 141.0097815395132 141.0097815395132" height="141.0097815395132" width="141.0097815395132"><g><path d="M0 70.505c0-38.939 31.566-70.505 70.505-70.505 38.939 0 70.505 31.566 70.505 70.505 0 38.939-31.566 70.505-70.505 70.505-38.939 0-70.505-31.566-70.505-70.505zM70.505 134.877c35.552 0 64.372-28.82 64.372-64.372 0-35.552-28.82-64.372-64.372-64.372-35.552 0-64.372 28.82-64.372 64.372 0 35.552 28.82 64.372 64.372 64.372z" data-fill-palette-color="accent" fill="#ffffff" stroke="transparent"></path></g><g transform="matrix(1,0,0,1,34.74034768545835,32.50560998235103)"><svg viewBox="0 0 71.52908616859649 75.99856157481113" height="75.99856157481113" width="71.52908616859649"><g><svg version="1.1" xmlns="http://www.w3.org/2000/svg" xmlns:xlink="http://www.w3.org/1999/xlink" x="0" y="0" viewBox="0 0 94.119 100" enable-background="new 0 0 94.119 100" xml:space="preserve" width="71.52908616859649" height="75.99856157481113" class="icon-cg-0" data-fill-palette-color="accent" id="cg-0"><polygon points="82.354,0 69.118,3.861 75.552,21.324 88.235,17.647 " fill="#ffffff" data-fill-palette-color="accent"></polygon><polygon points="61.031,6.067 43.75,11.029 44.118,11.765 47.427,20.772 50.368,28.493 67.648,23.53 " fill="#ffffff" data-fill-palette-color="accent"></polygon><polygon points="35.846,13.235 20.589,17.647 27.207,35.111 42.464,30.699 38.604,20.772 " fill="#ffffff" data-fill-palette-color="accent"></polygon><polygon points="12.684,19.853 0,23.53 5.883,41.177 19.118,37.317 " fill="#ffffff" data-fill-palette-color="accent"></polygon><path d="M5.883 41.177v52.941c0 3.259 2.623 5.882 5.882 5.882h76.47c3.259 0 5.884-2.623 5.884-5.882V41.177H5.883zM82.354 70.588H17.647V52.942h64.706V70.588z" fill="#ffffff" data-fill-palette-color="accent"></path></svg></g></svg></g></svg></g></svg></g><g></g></svg></g><defs></defs></svg><rect width="395.52" height="241.12784146494306" fill="none" stroke="none" visibility="hidden"></rect></g></svg></g></svg>